<?xml version="1.0" encoding="utf-8"?>
<!-- Generator: Adobe Illustrator 27.5.0, SVG Export Plug-In . SVG Version: 6.00 Build 0)  -->
<svg version="1.1" xmlns="http://www.w3.org/2000/svg" xmlns:xlink="http://www.w3.org/1999/xlink" x="0px" y="0px"
	 viewBox="0 0 500 500" style="enable-background:new 0 0 500 500;" xml:space="preserve">
<g id="BACKGROUND">
	<g id="layer2">
		<circle id="path18415" style="fill:#E1F3FF;" cx="250" cy="250" r="222.275"/>
	</g>
</g>
<g id="OBJECTS">
	<g id="layer7">
		<g>
			<defs>
				<rect id="SVGID_1_" x="0" width="499.64" height="500"/>
			</defs>
			<clipPath id="SVGID_00000172433608865595446680000010090532161727320494_">
				<use xlink:href="#SVGID_1_"  style="overflow:visible;"/>
			</clipPath>
			<g id="g955" style="clip-path:url(#SVGID_00000172433608865595446680000010090532161727320494_);">
				<path id="path20426" style="fill:#8FB1DD;" d="M157.476,361.681l39.652,11.333v10.781l-39.652-11.541V361.681z"/>
				<path id="path20428" style="fill:#8FB1DD;" d="M139.342,369.398v10.715l18.134-7.859v-10.573L139.342,369.398z"/>
				<path id="path20430" style="fill:#8FB1DD;" d="M139.342,380.113l39.827,11.852l17.959-8.17l-39.652-11.541L139.342,380.113z"/>
				<path id="path20432" style="fill:#8FB1DD;" d="M139.342,369.398l39.827,11.639l17.959-8.023l-39.652-11.333L139.342,369.398z"/>
				<path id="path20434" style="fill:#6185B3;" d="M179.169,381.037v10.928l17.959-8.17v-10.781L179.169,381.037z"/>
				<path id="path20436" style="fill:#8FB1DD;" d="M139.342,369.398l39.827,11.639v10.928l-39.827-11.852V369.398z"/>
				<path id="path19721" style="fill:#4183F3;" d="M140.467,366.512l44.811,13.023v15.6l-44.811-13.363V366.512z"/>
				<path id="path19723" style="fill:#4183F3;" d="M93.203,386.547v15.779l47.264-20.555v-15.26L93.203,386.547z"/>
				<path id="path19725" style="fill:#4183F3;" d="M93.203,402.326l45.28,14.304l46.795-21.495l-44.811-13.363L93.203,402.326z"/>
				<path id="path19727" style="fill:#5BAEFF;" d="M93.203,386.547l45.28,13.939l46.795-20.951l-44.811-13.023L93.203,386.547z"/>
				<path id="path19729" style="fill:#3B74D6;" d="M138.484,400.486v16.144l46.795-21.495v-15.6L138.484,400.486z"/>
				<path id="path19731" style="fill:#4183F3;" d="M93.203,386.547l45.28,13.939v16.144l-45.28-14.304V386.547z"/>
				<path id="path11479" style="fill:#4183F3;" d="M111.686,394.906c-0.736,0.008-1.41,0.164-1.994,0.445l-29.538,12.869
					l7.878,11.993l29.337-13.11c0.166-0.062,0.326-0.134,0.479-0.214c0.007-0.004,0.015-0.007,0.021-0.007
					c1.287-0.686,2.1-2.017,2.1-3.78c0-3.286-2.816-6.817-6.279-7.886c-0.701-0.217-1.375-0.315-2.004-0.308V394.906z"/>
				<path id="path12055" style="fill:#194793;" d="M90.384,416.251c0,3.355-2.832,5.152-6.315,4.017
					c-3.471-1.131-6.275-4.748-6.275-8.082c0-3.334,2.805-5.14,6.275-4.03C87.552,409.27,90.384,412.896,90.384,416.251z"/>
				<path id="path13082" style="fill:#5BAEFF;" d="M83.583,409.66c-1.38-0.441-2.428-0.256-3.1,0.177
					c-0.673,0.432-1.104,1.125-1.104,2.348c0,2.446,2.415,5.681,5.179,6.582c1.387,0.452,2.448,0.274,3.128-0.158
					c0.681-0.432,1.114-1.126,1.114-2.357C88.8,413.788,86.355,410.547,83.583,409.66z"/>
				<g id="path13221" transform="matrix(1.2573592,0,0,1.2574878,-19.805404,-21.824579)">
					<path id="path3662" style="fill:#FFFFFF;" d="M81.264,347.588l-213.275,97.513"/>
					<path id="path3664" style="fill:#4183F3;" d="M82.345,344.682c-0.77-0.286-1.622-0.254-2.37,0.089l-213.277,97.515
						c-1.554,0.712-2.238,2.549-1.528,4.104c0.713,1.554,2.549,2.237,4.105,1.528l213.277-97.507
						c1.557-0.712,2.242-2.552,1.53-4.108c-0.001-0.002-0.002-0.002-0.002-0.003C83.738,345.551,83.115,344.97,82.345,344.682
						L82.345,344.682z"/>
				</g>
			</g>
		</g>
		<path id="path27729" style="opacity:0.4503;fill:#6885CE;enable-background:new    ;" d="M463.895,246.106
			c17.277,7.102,19.998,16.554,17.305,21.328c-2.694,4.775-202.23,92.665-229.621,102.747
			c-21.805,8.027-190.105-50.467-200.852-55.267s-6.965-6.343-2.204-9.917c4.762-3.576,325.277-60.112,359.424-62.83
			C442.092,239.45,463.895,246.106,463.895,246.106z"/>
	</g>
	<g id="layer8">
		<g id="g935">
			<path id="path27501" style="fill:#2EB2A8;" d="M293.661,187.738c-2.788,0.037-5.342,0.712-7.522,1.908h-0.008l-243.24,78.701
				l11.749,2.213l227.683-77.861c-2.292,2.608-3.642,6.108-3.642,10.178c0,10.121,8.339,19.947,18.789,22.05l157.226,31.646
				c12.147,2.444,22.018-4.471,22.018-15.527c0-11.056-9.871-21.775-22.018-24.013L297.47,188.07
				C296.164,187.829,294.89,187.722,293.661,187.738L293.661,187.738z"/>
			<path id="path27503" style="fill:#17928D;" d="M314.722,191.248l-35.719,15.028c1.598,8.837,9.195,16.785,18.468,18.651
				l91.253,17.918L224.359,310.98l11.438,46.83l230.927-102.055c0.478-0.188,0.945-0.395,1.397-0.619l0.117-0.052l-0.002-0.007
				c5.156-2.609,8.479-7.621,8.479-14.032c0-9.872-7.873-19.468-18.205-23.005l-0.083-0.319l-0.388,0.155
				c-1.09-0.351-2.206-0.633-3.343-0.842L314.722,191.248z"/>
			<path id="path27505" style="opacity:0.2221;fill:#144C4A;enable-background:new    ;" d="M474.289,231.512
				c-43.809,41.682-179.566,95.803-225.543,105.49c-6.493,1.368-12.115,2.688-17.066,3.955l4.117,16.854l230.926-102.055
				c0.478-0.188,0.945-0.395,1.398-0.619l0.117-0.051l-0.003-0.008c5.157-2.609,8.479-7.621,8.479-14.031
				C476.715,237.766,475.829,234.52,474.289,231.512L474.289,231.512z"/>
			<path id="path27507" style="fill:#4183F3;" d="M52.657,268.015l169.479,42.275c13.3,3.317,24.131,16.861,24.131,30.329
				c0,13.467-10.831,21.357-24.131,17.734l-169.479-46.18c-11.091-3.022-19.928-15.175-19.928-27.279
				C32.729,272.789,41.566,265.248,52.657,268.015L52.657,268.015z"/>
			<path id="path27509" style="fill:#133C80;" d="M52.653,271.719c-9.297-2.337-16.613,3.885-16.613,14.04
				s7.316,20.194,16.613,22.71l169.485,45.854c11.126,3.01,20.043-3.513,20.043-14.77c0-11.256-8.917-22.432-20.043-25.228
				L52.653,271.719z"/>
			<path id="path27511" style="fill:#1B50AA;" d="M52.653,271.719c-8.722-2.192-15.698,3.15-16.527,12.197l1.002-0.851l2.695,3.683
				l-2.695,2.272l-1.002-1.371c0.831,9.479,7.807,18.461,16.527,20.82l1.419,0.383l1.212-0.999l1.212,1.655l9.857,2.667l1.227-1.004
				l1.229,1.668l9.987,2.702l1.242-1.008l1.245,1.681l10.119,2.737l1.259-1.012l1.261,1.693l10.249,2.773l1.275-1.018l1.276,1.708
				l10.381,2.808l1.292-1.02l1.294,1.721l10.519,2.846l1.309-1.026l1.312,1.735l10.658,2.884l1.33-1.029l1.328,1.748l10.802,2.922
				l1.345-1.034l1.35,1.764l10.946,2.962l1.363-1.039l1.368,1.777l11.093,3.002l1.381-1.045l1.384,1.793l11.248,3.043l1.4-1.049
				l1.402,1.807l11.405,3.086l1.42-1.053l1.422,1.821l6.663,1.803c1.992,0.539,3.914,0.768,5.728,0.723l0.617-0.453l0.315,0.401
				c1.901-0.15,3.671-0.609,5.259-1.357l-1.567-1.99l3.277-2.411l1.68,2.128c1.259-1.154,2.3-2.559,3.085-4.176l-0.726-0.916
				l1.545-1.131c0.54-1.691,0.83-3.563,0.83-5.586c0-2.021-0.291-4.041-0.83-6.014l-1.545-1.941l0.729-0.54
				c-0.785-2.027-1.829-3.975-3.088-5.786l-1.68,1.252l-3.277-4.121l1.567-1.173c-1.586-1.574-3.354-2.958-5.253-4.102l-0.321,0.242
				l-0.624-0.783c-1.812-0.99-3.73-1.764-5.721-2.265l-6.656-1.673l-1.429,1.084l-1.423-1.801l-11.396-2.865l-1.409,1.08
				l-1.403-1.787l-11.238-2.824l-1.39,1.074l-1.385-1.772l-11.086-2.786l-1.371,1.069l-1.366-1.758l-10.94-2.751l-1.354,1.065
				l-1.348-1.743l-10.795-2.714l-1.331,1.06l-1.333-1.73l-10.652-2.678l-1.314,1.056l-1.313-1.716l-10.512-2.643l-1.297,1.052
				l-1.298-1.704l-10.372-2.607l-1.28,1.047l-1.281-1.69l-10.239-2.574l-1.264,1.042l-1.265-1.677l-10.108-2.541l-1.25,1.035
				l-1.245-1.663l-9.979-2.509l-1.234,1.032l-1.227-1.65l-9.852-2.477l-1.219,1.027l-1.214-1.639L52.653,271.719z M49.192,272.855
				l2.729,3.69l-2.727,2.301l-2.724-3.689L49.192,272.855z M61.416,275.94l2.764,3.714l-2.764,2.314l-2.759-3.713L61.416,275.94z
				 M73.791,279.065l2.8,3.742l-2.8,2.324l-2.794-3.741L73.791,279.065z M86.33,282.229l2.839,3.776l-2.839,2.333l-2.831-3.773
				L86.33,282.229z M99.03,285.435l2.876,3.806l-2.876,2.34l-2.865-3.802L99.03,285.435z M111.895,288.682l2.914,3.836l-2.914,2.351
				l-2.902-3.831L111.895,288.682z M124.936,291.975l2.949,3.86l-2.952,2.365l-2.938-3.858L124.936,291.975z M138.144,295.309
				l2.989,3.891l-2.992,2.377l-2.977-3.889L138.144,295.309z M151.532,298.688l3.029,3.926l-3.029,2.388l-3.02-3.924
				L151.532,298.688z M165.097,302.111l3.069,3.958l-3.066,2.396l-3.063-3.955L165.097,302.111z M178.846,305.582l3.111,3.99
				l-3.108,2.406l-3.105-3.988L178.846,305.582z M192.788,309.102l3.154,4.02l-3.154,2.42l-3.149-4.018L192.788,309.102z
				 M206.916,312.668l3.197,4.053l-3.197,2.431l-3.191-4.05L206.916,312.668z M221.242,316.284l3.246,4.091l-3.246,2.441
				l-3.235-4.088L221.242,316.284z M43.142,277.977l2.715,3.685l-2.715,2.288l-2.704-3.684L43.142,277.977z M67.585,284.231
				l2.779,3.741l-2.785,2.308l-2.768-3.737L67.585,284.231z M80.04,287.419l2.818,3.771l-2.818,2.318l-2.81-3.768L80.04,287.419z
				 M92.657,290.648l2.854,3.8l-2.854,2.33l-2.846-3.798L92.657,290.648z M105.443,293.92l2.892,3.828l-2.889,2.342l-2.887-3.828
				L105.443,293.92z M131.516,300.592l2.97,3.89l-2.97,2.361l-2.96-3.888L131.516,300.592z M144.816,303.995l3.012,3.922
				l-3.012,2.37l-3.003-3.919L144.816,303.995z M158.29,307.443l3.052,3.953l-3.052,2.382l-3.044-3.951L158.29,307.443z
				 M171.949,310.94l3.094,3.984l-3.094,2.393l-3.081-3.982L171.949,310.94z M199.826,318.073l3.176,4.05l-3.179,2.414l-3.163-4.047
				L199.826,318.073z M214.055,321.715l3.22,4.083l-3.22,2.426l-3.21-4.081L214.055,321.715z M228.477,325.404l3.265,4.119
				l-3.265,2.436l-3.254-4.115L228.477,325.404z M55.283,281.086l2.749,3.711l-2.749,2.299l-2.736-3.711L55.283,281.086z
				 M118.395,297.237l2.928,3.855l-2.928,2.351l-2.924-3.858L118.395,297.237z M185.791,314.484l3.137,4.016l-3.137,2.402
				l-3.12-4.014L185.791,314.484z M49.195,286.195l2.727,3.711l-2.727,2.278l-2.724-3.701L49.195,286.195z M61.416,289.365
				l2.761,3.738l-2.761,2.289l-2.759-3.728L61.416,289.365z M73.791,292.575l2.803,3.77l-2.803,2.3l-2.794-3.761L73.791,292.575z
				 M86.33,295.828l2.839,3.798l-2.839,2.311l-2.831-3.79L86.33,295.828z M99.03,299.121l2.876,3.828l-2.876,2.321l-2.868-3.819
				L99.03,299.121z M111.895,302.459l2.914,3.857l-2.914,2.328l-2.899-3.845L111.895,302.459z M124.933,305.841l2.952,3.889
				l-2.952,2.339l-2.938-3.876L124.933,305.841z M138.144,309.268l2.989,3.919l-2.989,2.353l-2.98-3.91L138.144,309.268z
				 M151.532,312.74l3.029,3.951l-3.029,2.362l-3.02-3.941L151.532,312.74z M165.097,316.26l3.069,3.981l-3.069,2.374l-3.061-3.974
				L165.097,316.26z M178.849,319.826l3.108,4.014l-3.108,2.383l-3.105-4.004L178.849,319.826z M192.788,323.441l3.151,4.048
				l-3.151,2.392l-3.148-4.035L192.788,323.441z M206.916,327.107l3.201,4.082l-3.201,2.404l-3.191-4.072L206.916,327.107z
				 M221.242,330.822l3.246,4.117l-3.246,2.415l-3.235-4.107L221.242,330.822z M235.765,334.59l3.291,4.15l-3.291,2.428l-3.28-4.143
				L235.765,334.59z M80.04,300.977l2.818,3.787l-2.818,2.299l-2.81-3.787L80.04,300.977z M92.657,304.293l2.854,3.816l-2.854,2.31
				l-2.846-3.817L92.657,304.293z M144.816,318.004l3.012,3.94l-3.012,2.35l-3.003-3.939L144.816,318.004z M158.29,321.547
				l3.052,3.971l-3.052,2.36l-3.044-3.972L158.29,321.547z M214.055,336.206l3.22,4.102l-3.22,2.403l-3.21-4.104L214.055,336.206z
				 M228.477,339.998l3.265,4.137l-3.265,2.414l-3.254-4.139L228.477,339.998z M43.142,291.279l2.715,3.699l-2.715,2.269
				l-2.704-3.698L43.142,291.279z M55.283,294.471l2.749,3.727l-2.749,2.279l-2.736-3.729L55.283,294.471z M67.579,297.703
				l2.785,3.759l-2.779,2.288l-2.773-3.76L67.579,297.703z M105.446,307.658l2.889,3.842l-2.892,2.32l-2.884-3.844L105.446,307.658z
				 M118.395,311.063l2.928,3.872l-2.928,2.331l-2.924-3.879L118.395,311.063z M131.516,314.512l2.97,3.907l-2.97,2.337l-2.96-3.908
				L131.516,314.512z M171.949,325.141l3.094,4l-3.094,2.371l-3.081-4L171.949,325.141z M185.791,328.779l3.137,4.033l-3.137,2.381
				l-3.12-4.035L185.791,328.779z M199.823,332.469l3.179,4.069l-3.176,2.39l-3.166-4.07L199.823,332.469z M49.195,299.537
				l2.727,3.727l-2.729,2.263l-2.721-3.723L49.195,299.537z M61.416,302.793l2.764,3.756l-2.764,2.272l-2.759-3.752L61.416,302.793z
				 M73.791,306.089l2.8,3.785l-2.8,2.282l-2.794-3.781L73.791,306.089z M86.33,309.429l2.839,3.815l-2.839,2.291l-2.831-3.811
				L86.33,309.429z M99.03,312.812l2.876,3.845l-2.876,2.301l-2.865-3.839L99.03,312.812z M111.895,316.238l2.914,3.875l-2.914,2.31
				l-2.902-3.869L111.895,316.238z M124.933,319.711l2.952,3.906l-2.949,2.322l-2.941-3.9L124.933,319.711z M138.141,323.23
				l2.992,3.937l-2.989,2.331l-2.98-3.931L138.141,323.23z M151.532,326.797l3.029,3.968l-3.029,2.342l-3.02-3.962L151.532,326.797z
				 M165.1,330.41l3.066,4l-3.069,2.352l-3.061-3.994L165.1,330.41z M178.849,334.072l3.108,4.033l-3.111,2.362l-3.102-4.028
				L178.849,334.072z M192.788,337.785l3.154,4.066l-3.154,2.373l-3.148-4.06L192.788,337.785z M206.916,341.549l3.197,4.101
				l-3.197,2.384l-3.191-4.096L206.916,341.549z M221.242,345.365l3.246,4.135l-3.246,2.394l-3.235-4.13L221.242,345.365z"/>
			<path id="path27513" style="fill:#4183F3;" d="M164.591,312.068c-2.688-0.691-4.846,0.992-4.846,3.773v5.881
				c0,2.781,2.158,5.593,4.846,6.306l13.078,3.47v-1.279c0-1.762,1.38-2.814,3.096-2.363c1.718,0.452,3.102,2.236,3.102,4.004v1.282
				l38.606,10.241c2.851,0.756,5.151-0.948,5.151-3.822v-6.079c0-2.874-2.301-5.78-5.151-6.515l-38.606-9.938v1.283
				c0,1.767-1.384,2.828-3.102,2.383c-1.716-0.446-3.096-2.221-3.096-3.982v-1.278L164.591,312.068z"/>
			<path id="path27515" style="fill:#0D1C35;" d="M161.282,316.336l15.424,4.01v6.686l-15.424-4.06V316.336z"/>
			<path id="path27517" style="fill:#0D1C35;" d="M183.561,322.127l42.002,10.918v6.846l-42.002-11.055V322.127z"/>
			<path id="path27519" style="fill:#79A3EA;" d="M101.394,250.249c-1.213,0.018-2.824,0.16-4.6,0.626l-11.363,3.685
				c3.787-0.995,6.835-0.509,6.835-0.509l11.362-3.684C103.628,250.367,102.768,250.229,101.394,250.249L101.394,250.249z"/>
			<path id="path27521" style="fill:#12ACA0;" d="M296.19,187.957L50.694,267.525l1.279,0.338c0.228,0.049,0.454,0.094,0.684,0.15
				l169.48,42.277c0.892,0.223,1.771,0.493,2.639,0.805l233.131-93.262l0.521-0.113l-155.219-28.596l-5.738-1.055
				C297.032,187.989,296.621,188.008,296.19,187.957z"/>
			<path id="path27523" style="opacity:0.1267;fill:#144C4A;enable-background:new    ;" d="M296.19,187.957l-3.807,1.234
				c-41.5,49.405-39.221,79.791-23.035,104.074l188.559-75.432l0.521-0.113l-155.219-28.596l-5.738-1.055
				C297.032,187.989,296.621,188.008,296.19,187.957z"/>
			<path id="path27525" style="opacity:0.3612;fill:#0B2645;enable-background:new    ;" d="M296.19,187.957l-7.369,2.389
				c7.93,0.038,14.999,1.358,19.9,2.709c8.057,2.22,133.534,21.894,147.182,27.094c13.647,5.2,17.425,22.316,10.711,29.596
				c-6.715,7.279-227.627,104.496-227.627,104.496s-1.33,1.428-2.434,3.236l230.17-101.721c0.478-0.188,0.945-0.395,1.398-0.619
				l0.117-0.051l-0.003-0.008c5.157-2.609,8.479-7.621,8.479-14.031c0-9.872-7.871-19.469-18.203-23.006l-0.083-0.32l-0.389,0.156
				c-0.047-0.015-0.095-0.026-0.141-0.041l0.007-0.002l0.522-0.113l-3.723-0.686l-0.007-0.002l-15.785-2.908l-135.703-25
				l-5.738-1.055C297.032,187.989,296.621,188.008,296.19,187.957L296.19,187.957z"/>
			<path id="path27527" style="fill:#4183F3;" d="M103.628,250.367l-11.362,3.684l60.652,14.388l4.875,1.159l3.758,0.889l18.352-6.5
				c6.977-2.473,17.868-3.07,25.211-1.393c7.395,1.689,7.84,4.916,0.911,7.451l-18.23,6.67l2.712,0.645l6.215,1.473l67.881,16.105
				l10.9-4.347l-67.72-15.85l7.119-2.633c11.261-4.164,10.361-9.688-1.72-12.42c-11.941-2.701-30.491-1.685-41.883,2.309l-7.2,2.522
				L103.628,250.367z"/>
			<path id="path27529" style="fill:#2557AB;" d="M275.503,290.59l-10.893,4.347c0,0,12.873,3.798,18.89,18.17
				c6.017,14.372-3.275,23.59-3.275,23.59s-2.015,2.2-4.17,3.382l9.754-4.438c2.506-0.855,5.253-3.834,5.253-3.834
				s7.209-9.808,1.214-23.993c-5.996-14.186-16.77-17.224-16.77-17.224H275.503z M276.054,340.078l-1.102,0.502
				C275.317,340.453,275.687,340.279,276.054,340.078z"/>
			<path id="path27531" style="fill:#4183F3;" d="M194.419,266.441c4.308,0.996,4.52,2.99,0.437,4.475l-25.207,9.16
				c-4.265,1.55-11.234,1.949-15.585,0.891c-4.332-1.055-4.341-3.135-0.06-4.661l25.304-9.023
				C183.407,265.822,190.13,265.447,194.419,266.441L194.419,266.441z"/>
			<path id="path27533" style="fill:#443FFC;" d="M191.479,267.502c-2.631-0.611-6.567-0.394-9.074,0.504l-25.291,9.052
				c-2.61,0.935-2.588,2.147,0.065,2.791c2.66,0.645,6.7,0.413,9.311-0.531l25.233-9.135
				C194.229,269.275,194.116,268.115,191.479,267.502L191.479,267.502z"/>
			<path id="path27535" style="fill:#6ADED5;" d="M335.282,212.133l12.468,2.394c12.651,2.429,15.08,7.342,5.166,11.046
				l-65.895,24.622c-11.245,4.202-31.132,5.294-44.256,2.412l-12.922-2.838c-12.805-2.812-13.632-8.301-2.179-12.275l67.227-23.324
				C305.023,210.655,322.915,209.759,335.282,212.133z"/>
			<path id="path27537" style="fill:#12ACA0;" d="M327.234,215.003c-7.019-1.361-16.612-0.877-22.331,1.132l-67.011,23.546
				c-6.421,2.256-5.89,5.169,1.332,6.737l12.896,2.799c7.36,1.598,17.851,1.026,24.195-1.314l66.148-24.386
				c5.64-2.079,4.432-4.7-2.713-6.086L327.234,215.003z"/>
			<path id="path27539" style="opacity:0.3654;fill:#6FD8C0;enable-background:new    ;" d="M167.03,229.82L50.694,267.525
				l1.279,0.338c0.227,0.049,0.454,0.094,0.684,0.15l169.48,42.277c0.892,0.223,1.771,0.493,2.639,0.805l10.92-4.369
				c-24.377-13.422-81.817-9.41-83.855-37.334C150.822,255.449,150.723,243.361,167.03,229.82z"/>
			<path id="path27541" style="opacity:0.4287;fill:#E1ECFF;enable-background:new    ;" d="M51.238,267.38
				c0,0,46.477,12.633,66.131,17.621c19.653,4.988,69.758,16.854,69.758,16.854s-82.149-21.988-104.894-27.315
				C61.546,269.697,51.238,267.38,51.238,267.38L51.238,267.38z"/>
		</g>
	</g>
</g>
</svg>
